<?xml version="1.0" standalone="no"?>
<!DOCTYPE svg PUBLIC "-//W3C//DTD SVG 20010904//EN"
 "http://www.w3.org/TR/2001/REC-SVG-20010904/DTD/svg10.dtd">
<svg version="1.0" xmlns="http://www.w3.org/2000/svg"
 width="700.000000pt" height="700.000000pt" viewBox="0 0 700.000000 700.000000"
 preserveAspectRatio="xMidYMid meet">
<metadata>
Created by potrace 1.14, written by Peter Selinger 2001-2017
</metadata>
<g transform="translate(0.000000,700.000000) scale(0.100000,-0.100000)"
fill="#000000" stroke="none">
<path d="M1374 6371 c-126 -36 -222 -117 -282 -241 l-37 -75 0 -1855 0 -1855
36 -75 c58 -123 156 -205 286 -241 61 -17 178 -18 2123 -18 1947 0 2062 1
2123 18 160 44 282 171 316 329 15 72 16 3628 1 3687 -33 127 -112 230 -221
289 -106 58 9 56 -2229 55 -1911 -1 -2059 -2 -2116 -18z m4250 -186 c59 -28
105 -77 133 -142 14 -32 17 -78 17 -283 l1 -245 -2275 0 -2275 0 0 246 1 245
27 57 c26 53 69 96 127 128 41 22 217 24 2252 22 l1938 -2 54 -26z m149 -859
c2 -6 3 -668 2 -1471 -1 -1356 -3 -1463 -18 -1499 -36 -83 -108 -146 -182
-161 -16 -3 -956 -6 -2087 -6 -1825 0 -2061 2 -2093 15 -62 26 -112 74 -142
134 l-28 57 -1 1465 c0 806 1 1468 3 1471 1 3 1024 6 2272 6 1648 0 2271 -3
2274 -11z"/>
<path d="M1595 6021 c-172 -79 -121 -331 67 -331 55 0 104 25 142 73 26 33 30
46 30 97 0 48 -5 66 -29 100 -49 71 -134 96 -210 61z"/>
<path d="M2045 6029 c-16 -4 -42 -20 -57 -34 -85 -79 -81 -203 8 -271 33 -25
46 -29 104 -29 58 0 71 4 104 29 124 94 68 295 -86 310 -24 2 -56 0 -73 -5z"/>
<path d="M2459 6019 c-71 -32 -112 -131 -88 -209 32 -100 152 -150 247 -101
130 66 121 253 -15 313 -48 21 -90 20 -144 -3z"/>
<path d="M3387 4972 c-99 -25 -200 -100 -259 -192 -47 -73 -62 -141 -67 -301
-1 -14 -21 -16 -148 -16 l-147 -1 -27 -29 c-18 -21 -28 -47 -33 -84 -4 -30 -9
-70 -12 -89 -5 -37 -22 -153 -30 -205 -13 -81 -35 -228 -45 -295 -5 -41 -12
-86 -14 -100 -2 -14 -11 -68 -19 -120 -8 -52 -18 -115 -21 -140 -5 -40 -17
-123 -30 -200 -12 -71 -25 -160 -30 -200 -3 -25 -10 -74 -16 -110 -6 -36 -13
-81 -15 -100 -3 -19 -7 -46 -9 -60 -21 -113 -14 -157 30 -180 34 -18 1975 -19
2009 0 49 26 52 54 21 250 -5 30 -55 365 -60 400 -2 14 -9 57 -14 95 -6 39
-13 86 -16 105 -3 19 -10 62 -15 95 -5 33 -12 80 -15 105 -3 25 -12 86 -20
135 -8 50 -16 108 -19 130 -4 22 -8 51 -11 65 -3 14 -7 41 -9 60 -3 19 -9 64
-15 100 -5 36 -17 117 -26 180 -21 138 -26 154 -60 176 -22 14 -51 17 -166 17
l-139 0 0 36 c-3 215 -87 366 -245 441 -106 50 -200 60 -308 32z m204 -177
c77 -33 134 -93 158 -165 9 -29 16 -116 12 -156 -1 -7 -82 -11 -261 -11 -231
0 -260 2 -261 16 -3 61 1 116 11 148 25 75 100 152 169 173 43 14 136 11 172
-5z m-530 -532 c0 -16 1 -57 1 -92 0 -36 5 -77 10 -92 13 -39 60 -59 108 -46
41 10 60 55 59 138 0 41 0 84 0 96 l1 22 262 -2 262 -2 -2 -85 c-2 -123 15
-161 78 -172 65 -10 99 41 98 147 0 128 -11 115 95 112 l92 -2 17 -110 c9 -60
20 -135 23 -165 4 -30 9 -57 10 -60 2 -3 6 -30 10 -60 3 -30 10 -80 15 -110
11 -69 20 -125 26 -169 5 -36 11 -78 19 -121 2 -14 6 -41 9 -60 9 -72 19 -136
22 -155 2 -11 6 -40 9 -65 4 -25 10 -67 15 -95 5 -27 12 -75 16 -105 4 -30 8
-57 9 -60 2 -7 17 -110 20 -135 2 -11 6 -39 9 -61 l7 -41 -861 0 -861 0 6 41
c4 22 8 52 10 66 4 32 16 110 20 131 2 9 6 40 10 69 4 29 9 62 11 74 2 12 11
68 19 126 9 58 18 117 20 131 3 15 7 47 10 70 3 24 14 98 25 164 22 143 29
188 36 235 5 37 28 194 44 295 5 33 12 83 16 110 3 28 8 53 11 58 2 4 44 7 94
7 l89 0 1 -27z"/>
<path d="M2539 413 c-1 -5 -3 -28 -4 -53 -2 -25 -3 -49 -4 -53 0 -5 -11 -1
-23 7 -36 26 -85 20 -119 -13 -16 -16 -29 -35 -30 -43 -8 -100 5 -138 58 -166
29 -16 52 -15 87 3 33 17 39 19 31 6 -6 -11 22 -18 53 -13 22 4 22 6 22 168
l0 164 -35 0 c-19 0 -36 -3 -36 -7z m-17 -155 c15 -24 12 -85 -4 -105 -18 -22
-64 -16 -75 10 -14 31 -7 89 12 103 20 15 55 10 67 -8z"/>
<path d="M2839 408 c-1 -7 -2 -81 -3 -165 l-1 -151 33 -4 c33 -4 58 11 44 28
-4 5 2 1 13 -8 74 -61 167 -8 167 96 0 89 -58 145 -128 123 -19 -6 -34 -14
-34 -19 0 -4 -4 -8 -10 -8 -6 0 -9 25 -7 60 l3 60 -38 0 c-23 0 -38 -5 -39
-12z m153 -137 c21 -3 26 -94 6 -118 -17 -21 -56 -15 -72 10 -30 45 -1 120 42
112 9 -2 20 -4 24 -4z"/>
<path d="M3957 413 c-3 -5 -4 -19 -3 -32 1 -21 6 -24 39 -25 35 -1 37 0 37 32
0 30 -2 32 -34 32 -19 0 -37 -3 -39 -7z"/>
<path d="M4267 413 c-2 -5 -3 -32 -1 -61 l2 -53 -24 16 c-46 30 -114 14 -139
-34 -19 -38 -22 -100 -6 -139 24 -58 106 -76 155 -34 18 16 19 16 13 0 -4 -11
-1 -18 6 -19 20 -2 62 3 66 7 3 2 5 76 5 164 l1 160 -37 0 c-20 0 -39 -3 -41
-7z m-11 -158 c14 -19 10 -81 -6 -101 -15 -17 -54 -18 -68 -1 -10 12 -15 45
-13 79 3 42 61 58 87 23z"/>
<path d="M803 389 c-107 -53 -107 -230 0 -286 56 -28 168 -24 188 8 3 6 4 21
2 34 -5 22 -6 23 -39 9 -46 -19 -77 -18 -107 6 -36 28 -46 66 -33 120 16 65
52 78 160 58 14 -2 19 3 20 24 1 22 -4 30 -28 38 -47 16 -117 12 -163 -11z"/>
<path d="M3590 250 c0 -86 2 -159 4 -161 3 -3 22 -3 43 -1 l39 4 -3 63 c-3 71
2 75 82 67 l40 -4 -1 -64 -1 -64 42 0 42 0 -1 158 -1 157 -40 0 -40 0 1 -55
c0 -30 -4 -57 -8 -61 -6 -4 -83 -4 -110 0 -4 0 -6 22 -6 49 1 72 1 71 -42 70
l-40 0 0 -158z"/>
<path d="M4717 400 c-2 -5 0 -269 2 -297 1 -8 16 -13 39 -13 l38 0 -1 105 c0
58 2 105 5 105 3 0 19 -34 35 -75 27 -68 33 -75 58 -75 23 0 31 8 52 54 14 30
25 59 25 63 0 5 6 17 13 27 11 15 12 -1 10 -92 -2 -106 -1 -110 20 -114 57
-10 57 -10 57 161 l0 158 -43 1 c-23 1 -47 -2 -53 -6 -7 -4 -27 -42 -45 -85
l-33 -79 -29 64 c-16 34 -33 73 -37 85 -8 19 -16 22 -60 20 -28 0 -52 -4 -53
-7z"/>
<path d="M1881 391 c-5 -3 -11 -20 -13 -36 -2 -17 -9 -30 -17 -30 -8 0 -16
-11 -18 -23 -2 -17 3 -25 17 -29 11 -3 20 -14 21 -24 1 -11 2 -40 2 -66 2 -62
16 -83 58 -91 59 -12 89 -4 89 24 0 17 -6 24 -20 25 -11 1 -26 2 -32 3 -9 1
-14 23 -16 64 l-3 62 41 0 c37 0 40 2 40 29 0 24 -4 28 -27 29 -49 0 -52 2
-55 34 -3 27 -7 32 -30 33 -15 1 -31 -1 -37 -4z"/>
<path d="M1059 306 c-3 -85 -1 -208 4 -212 8 -8 67 -14 68 -6 1 4 2 34 4 67 3
83 3 82 21 100 10 10 29 15 47 13 28 -3 31 0 33 30 2 30 1 32 -31 32 -18 0
-38 -7 -45 -15 -16 -19 -34 -20 -27 -1 5 11 -3 15 -34 14 -33 0 -39 -4 -40
-22z"/>
<path d="M1321 318 c-38 -20 -63 -62 -63 -104 -1 -90 46 -133 140 -129 83 3
102 11 102 45 l0 28 -51 -15 c-57 -17 -109 -4 -109 27 0 15 11 17 86 16 l86
-1 -5 44 c-7 63 -41 93 -109 98 -31 2 -63 -1 -77 -9z m99 -53 c6 -8 9 -19 5
-24 -8 -14 -85 -11 -85 4 0 32 57 47 80 20z"/>
<path d="M1575 316 c-12 -39 -3 -45 56 -39 40 4 63 2 74 -7 23 -19 8 -30 -40
-30 -24 0 -55 -5 -69 -11 -46 -21 -57 -90 -20 -127 24 -23 80 -27 111 -7 18
12 28 14 31 7 2 -7 20 -12 41 -12 l37 0 -2 78 c-1 42 -2 84 -3 93 0 9 -13 28
-28 43 -25 25 -32 27 -106 25 -47 -1 -80 -6 -82 -13z m143 -131 c8 -8 -20 -44
-38 -50 -39 -12 -68 34 -33 53 15 9 62 7 71 -3z"/>
<path d="M2124 320 c-84 -34 -87 -189 -5 -222 36 -15 105 -18 145 -7 27 7 35
15 38 40 4 24 2 29 -11 23 -36 -14 -80 -24 -97 -21 -32 5 -57 23 -52 38 3 10
26 14 86 14 45 1 83 3 86 6 13 13 -16 87 -44 112 -24 22 -40 27 -78 26 -26 0
-57 -4 -68 -9z m90 -46 c9 -3 16 -14 16 -23 0 -13 -10 -16 -45 -17 -46 -1 -57
10 -33 34 13 13 37 15 62 6z"/>
<path d="M3127 311 c5 -17 13 -34 62 -148 36 -84 38 -99 11 -113 -11 -6 -20
-8 -20 -4 0 3 -6 1 -14 -6 -26 -21 -7 -40 39 -40 60 0 61 2 140 205 49 125 49
123 5 123 l-38 1 -23 -75 c-12 -41 -25 -74 -29 -74 -3 0 -19 33 -36 73 -29 70
-30 72 -66 73 -29 1 -35 -2 -31 -15z"/>
<path d="M3959 327 c-1 -1 -3 -55 -4 -119 l-3 -118 39 0 39 0 0 118 0 119 -35
1 c-19 1 -36 0 -36 -1z"/>
<path d="M4458 314 c-51 -27 -71 -95 -47 -162 15 -42 51 -63 117 -67 75 -5
116 12 117 49 2 21 -1 26 -14 20 -9 -4 -35 -11 -58 -17 -34 -8 -46 -7 -67 7
-47 30 -33 41 52 41 42 -1 83 1 90 3 17 6 2 84 -22 107 -37 37 -119 46 -168
19z m106 -50 c23 -23 13 -31 -39 -31 -49 0 -50 0 -35 28 13 23 53 25 74 3z"/>
<path d="M5163 323 c-7 -2 -13 -15 -13 -29 0 -23 2 -24 58 -18 49 5 61 3 77
-12 18 -19 18 -19 -26 -22 -89 -5 -129 -29 -129 -77 0 -66 68 -102 131 -71 37
18 42 20 34 7 -6 -11 21 -18 55 -13 25 3 25 5 23 90 -3 96 -13 124 -50 141
-24 11 -137 14 -160 4z m134 -136 c2 -2 1 -12 -3 -21 -15 -40 -84 -44 -84 -5
0 28 65 47 87 26z"/>
<path d="M5449 326 c-1 -1 -2 -54 -3 -118 l-2 -118 38 0 38 0 0 68 c0 87 18
116 66 110 33 -4 34 -3 34 29 0 30 -3 33 -29 33 -16 0 -36 -7 -45 -15 -18 -19
-26 -19 -26 0 0 10 -10 14 -35 13 -19 -1 -35 -2 -36 -2z"/>
<path d="M5659 308 c-1 -13 -1 -56 -1 -97 2 -85 17 -116 62 -126 34 -7 90 10
91 29 0 6 4 2 9 -10 6 -16 15 -19 44 -16 l36 4 -1 118 0 118 -37 -2 -37 -1 -5
-83 c-5 -85 -14 -102 -52 -102 -26 0 -32 18 -34 100 -1 41 -3 78 -3 83 -1 4
-17 7 -36 7 -29 0 -35 -4 -36 -22z"/>
</g>
</svg>
